PathFileType	4	(X/Y/Z)	/Users/mathieubourgeois/Desktop/Analyse/Traitement/Sujet_08/Data/Transformed_Sujet_08_velo_60.trc
DataRate	CameraRate	NumFrames	NumMarkers	Units	OrigDataRate	OrigDataStartFrame	OrigNumFrames
120.000000	120.000000	4	35	mm	120.000000	0	1866
Frame#	Time	RFHD			RANE			STRN			LANI			LKNE			T10			RHUM			RWRB			C7			LFWT			LTOE			RTOE			LWRA			LBWT			RBWT			RFWT			LKNI			RKNI			RKNE			LANE			RANI			LHEE			LHUM			LRAD			RRAD			RWRA			LWRB			LFHD			LBHD			RBHD			RSHO			LSHO			CLAV			LCAR			RCAR			
		X1	Y1	Z1	X2	Y2	Z2	X3	Y3	Z3	X4	Y4	Z4	X5	Y5	Z5	X6	Y6	Z6	X7	Y7	Z7	X8	Y8	Z8	X9	Y9	Z9	X10	Y10	Z10	X11	Y11	Z11	X12	Y12	Z12	X13	Y13	Z13	X14	Y14	Z14	X15	Y15	Z15	X16	Y16	Z16	X17	Y17	Z17	X18	Y18	Z18	X19	Y19	Z19	X20	Y20	Z20	X21	Y21	Z21	X22	Y22	Z22	X23	Y23	Z23	X24	Y24	Z24	X25	Y25	Z25	X26	Y26	Z26	X27	Y27	Z27	X28	Y28	Z28	X29	Y29	Z29	X30	Y30	Z30	X31	Y31	Z31	X32	Y32	Z32	X33	Y33	Z33	X34	Y34	Z34	X35	Y35	Z35	

1	0	253.7617034912109	1380.950805664062	88.71124267578119	-293.2667236328125	296.8688354492188	167.7788391113281	-55.99609375	1161.6591796875	8.806828498840254	-79.07316589355467	576.2131958007812	-72.50744628906254	40.22052383422853	965.7806396484375	-139.1746978759766	-210.9102935791016	1358.764404296875	16.56740760803212	148.3904571533203	1082.38720703125	195.271484375	328.8697814941406	909.1544799804688	250.6061401367187	26.46828269958496	1430.763427734375	8.321055412292397	-277.6466979980469	1108.396850585938	-93.43289184570322	68.42815399169923	470.0519409179688	-117.9217071533203	-127.1688232421875	187.5945739746094	144.1596221923828	357.0213012695312	938.5556030273438	-172.4339294433594	-413.6846923828125	1158.244140625	-22.73006820678723	-402.2473754882812	1153.401000976562	107.431297302246	-245.1823425292969	1088.251953125	137.7285766601562	34.31408309936524	892.4744873046875	-35.81784057617192	-126.3251953125	611.1849365234375	84.47238159179682	-140.8649597167969	679.088134765625	188.1480712890624	-116.597900390625	574.68798828125	-153.2957305908204	-258.2296752929688	306.3121948242188	90.90771484374996	-164.3001403808594	555.7161865234375	-111.1533813476563	125.3388137817383	1075.332763671875	-179.0717010498047	179.7916412353516	1107.04736328125	-229.0926666259766	188.2305755615234	1106.197265625	242.3607177734375	359.5880432128906	930.7027587890625	187.3367767333984	321.3536071777344	897.1355590820312	-224.1812591552735	276.58251953125	1374.715209960938	-34.40275192260747	190.6923828125	1500.02685546875	-70.57293701171881	169.3610229492188	1524.484497070312	65.21753692626945	63.90189361572264	1366.438842773438	126.946548461914	46.02704238891603	1364.232299804688	-136.9193115234376	49.20611572265625	1294.874755859375	3.603300094604419	419.9112854003907	909.5285034179688	-255.2804107666016	431.1891479492187	896.968505859375	279.3349304199219	
2	0.008333333333333333	253.181396484375	1380.513061523438	88.86924743652338	-298.656494140625	304.0179138183594	167.3291931152343	-56.87763977050781	1161.40380859375	8.903334617614668	-73.62866210937499	569.0492553710938	-73.0826797485352	39.60968017578126	961.130859375	-139.1367645263672	-211.7373962402344	1359.223022460938	15.20415782928456	147.9705963134765	1082.099853515625	195.3620910644531	328.7709960937499	909.1482543945312	250.5813598632812	25.82699203491211	1430.461303710938	8.544228553771889	-277.9991760253906	1108.05322265625	-93.47648620605479	76.22779846191408	464.8760070800781	-117.3869400024414	-134.519271850586	192.0684051513672	144.3406066894531	356.8285217285156	938.6174926757812	-172.43994140625	-414.2395935058594	1157.90576171875	-22.80700874328625	-402.9454956054688	1153.154174804688	107.4421081542968	-245.757080078125	1088.203247070312	137.6458129882812	33.69246673583985	887.9258422851562	-35.00838851928716	-123.2975463867188	613.81298828125	85.48063659667963	-137.3435516357422	681.4473266601562	189.1097106933593	-110.899299621582	566.8477172851562	-154.035629272461	-263.3371276855469	312.7431335449219	90.54911041259761	-158.5649261474609	546.5485229492188	-111.3095932006836	124.9138107299805	1075.089599609375	-178.8698883056641	179.3605194091797	1106.91455078125	-228.9291534423828	187.8430938720703	1105.96337890625	242.4378356933593	359.440185546875	930.7552490234375	187.3215026855469	321.1749572753906	897.173828125	-224.1850280761719	275.96875	1374.272827148438	-34.2758293151856	190.1096343994141	1499.611450195312	-70.44823455810553	168.7946014404297	1524.0654296875	65.34671020507804	63.17866897583006	1366.053100585938	127.1048278808593	45.42510223388673	1363.9169921875	-136.7516174316407	48.46136093139648	1294.521484375	3.810915708541797	419.7264709472657	909.6199340820312	-255.3205413818359	431.0944519042968	897.0191040039062	279.3095092773438	
3	0.01666666666666667	252.6563110351562	1380.114624023438	88.97225189208979	-303.5860290527344	311.5536804199219	166.8597869873046	-57.75786972045898	1161.186767578125	9.053381919860762	-68.40936279296874	561.6937866210938	-73.72759246826176	38.9995574951172	955.9218139648438	-139.1464996337891	-212.3534240722656	1359.076538085938	15.32093238830555	147.5504608154297	1081.82763671875	195.4861145019531	328.6682128906249	909.1504516601562	250.5679168701172	25.26449775695801	1430.183227539062	8.713058471679604	-278.183837890625	1107.655151367188	-93.5734863281251	82.88061523437501	459.8897094726562	-117.5917129516602	-141.231201171875	196.6362762451172	144.7864990234375	356.6423034667969	938.656494140625	-172.4339141845703	-414.6993713378906	1157.470458984375	-22.92366218566907	-403.5396423339844	1152.843994140625	107.3636932373046	-246.2396545410157	1088.153564453125	137.5420684814452	33.46846008300782	882.0592041015625	-37.14603805541997	-120.1623916625977	616.5609130859375	86.48766326904291	-133.5748291015625	683.9811401367188	190.0486450195312	-105.3931121826172	558.6829833984375	-154.83837890625	-267.7891540527344	319.4665222167969	90.20606994628902	-152.8354644775391	537.8377685546875	-112.3323745727539	124.4980926513672	1074.873901367188	-178.6821746826172	178.9914703369141	1106.794555664062	-228.7034606933594	187.4435272216797	1105.734619140625	242.5071563720703	359.303466796875	930.7854614257812	187.2983551025391	321.0127258300781	897.2054443359375	-224.213623046875	275.3748779296875	1373.89794921875	-34.13713073730474	189.5620269775391	1499.216064453125	-70.28022766113287	168.3095397949219	1523.7119140625	65.5138397216796	62.53543090820311	1365.663818359375	127.4079818725585	44.82640075683595	1363.603393554688	-136.5507202148438	47.74652481079102	1294.224243164062	3.975796937942432	419.5428161621094	909.69189453125	-255.3694000244141	430.9994201660156	897.0631103515625	279.2826843261719	
4	0.025	252.6268615722656	1379.684204101562	89.73100280761713	-307.9841003417969	319.5518188476562	166.5193786621093	-58.55143356323242	1161.012084960938	9.281599998474043	-63.04553222656249	554.6546020507812	-74.63327789306645	38.33661270141603	950.1067504882812	-139.1646423339844	-212.7868347167969	1358.334594726562	16.69966888427724	147.2088012695312	1081.582153320312	195.6088256835937	328.5921020507812	909.1495971679688	250.5687103271484	24.69622993469238	1429.89990234375	8.935127258300698	-278.2586364746094	1107.215698242188	-93.65744781494151	89.52773284912111	454.2878723144531	-117.6993865966797	-148.0474548339844	201.9723205566406	144.9107513427734	356.5064392089844	938.79150390625	-172.491455078125	-415.0913696289062	1157.0546875	-23.08206748962414	-404.1422119140625	1152.53173828125	107.3053283691405	-246.6677856445313	1088.062622070312	137.4081878662109	32.87360763549805	875.9339599609375	-37.55203628540044	-116.6244888305664	619.7009887695312	87.52443695068354	-129.6620483398438	686.7180786132812	191.0086212158203	-100.5309219360351	549.2681884765625	-155.5043487548828	-272.2156677246094	326.696533203125	89.8589706420898	-147.7760467529297	528.662109375	-113.5697631835938	124.1592178344727	1074.684936523438	-178.566635131836	178.2751922607422	1106.711303710938	-228.8814392089844	186.9346771240234	1105.73583984375	242.7767791748047	359.735107421875	930.74267578125	187.2442016601562	320.8498840332031	897.2020263671875	-224.1416778564453	274.7833557128906	1373.406616210938	-34.01234817504888	189.0956420898438	1498.889404296875	-70.05580902099615	167.17578125	1523.402221679688	65.94022369384757	61.90701675415038	1365.325561523438	127.6812210083007	44.29701995849611	1363.319580078125	-136.321029663086	47.10182571411133	1293.916870117188	4.20700359344475	419.2714233398438	909.929931640625	-255.6426544189453	430.9387817382812	897.1116333007812	279.262939453125	
